<svg viewBox="0 0 96 96" xmlns="http://www.w3.org/2000/svg" xmlns:xlink="http://www.w3.org/1999/xlink" id="Icons_Library" overflow="hidden"><style>
.MsftOfcThm_Accent2_lumOff_4_Fill {
 fill:#C48170; 
}
</style>
<g><g transform="matrix(0.0390625 0 0 0.0390625 8 8)"><path d="M640 1792 640 256 1024 256 1024 1792 640 1792ZM768 384 768 1664 896 1664 896 384 768 384ZM128 1792 128 256 512 256 512 1792 128 1792ZM256 384 256 1664 384 1664 384 384 256 384ZM1491 233 1975 1683 1629 1799 1145 349 1491 233ZM1287 419 1699 1657 1833 1613 1420 375 1287 419Z" class="MsftOfcThm_Accent2_lumOff_4_Fill" fill="#C48170"/></g></g></svg>