<svg viewBox="0 0 96 96" xmlns="http://www.w3.org/2000/svg" xmlns:xlink="http://www.w3.org/1999/xlink" id="Icons_NewTeamProject" overflow="hidden"><style>
.MsftOfcThm_Accent2_lumOff_9_Fill {
 fill:#A5A5A5; 
}
</style>
<g><g transform="matrix(0.0390625 0 0 0.0390625 8 8)"><path d="M608 256C638 256 663.667 259 685 265 706.333 271 725.667 279 743 289 760.333 299 775.667 309.333 789 320 802.333 330.667 815.667 341 829 351 842.333 361 857 368.667 873 374 889 379.333 907.333 382.667 928 384L1920 384C1938 384 1954.67 387.333 1970 394 1985.33 400.667 1998.67 409.667 2010 421 2021.33 432.333 2030.67 446 2038 462 2045.33 478 2048.67 494.667 2048 512L2048 1408 1920 1408 1920 512 928 512C907.333 512 889.333 515 874 521 858.667 527 844 535 830 545 816 555 802.333 565.333 789 576 775.667 586.667 760.667 597 744 607 727.333 617 708 624.667 686 630 664 635.333 638 638.667 608 640L128 640 128 1664 1152 1664 1152 1792 0 1792 0 384C0 366 3.33333 349.333 10 334 16.6667 318.667 25.6667 305.333 37 294 48.3333 282.667 62 273.333 78 266 94 258.667 110.667 255.333 128 256L608 256ZM608 512C624 512 638 510.667 650 508 662 505.333 673 501 683 495 693 489 702.667 482.333 712 475 721.333 467.667 732 458.667 744 448 732.667 438 722.333 429.333 713 422 703.667 414.667 693.667 408 683 402 672.333 396 661.333 391.667 650 389 638.667 386.333 624.667 384.667 608 384L128 384 128 512 608 512ZM1792 1664 2048 1664 2048 1792 1792 1792 1792 2048 1664 2048 1664 1792 1408 1792 1408 1664 1664 1664 1664 1408 1792 1408 1792 1664ZM1453 941 1024 1371 595 941 685 851 1024 1189 1363 851 1453 941Z" class="MsftOfcThm_Accent2_lumOff_9_Fill" fill="#A5A5A5"/></g></g></svg>