<svg viewBox="0 0 96 96" xmlns="http://www.w3.org/2000/svg" xmlns:xlink="http://www.w3.org/1999/xlink" id="Icons_DocumentSearch" overflow="hidden"><style>
.MsftOfcThm_Accent2_lumOff_6_Fill {
 fill:#B4908B; 
}
</style>
<g><g transform="matrix(0.0390625 0 0 0.0390625 8 8)"><path d="M1664 896C1716.67 896 1766.33 906 1813 926 1859.67 946 1900.33 973.333 1935 1008 1969.67 1042.67 1997 1083.67 2017 1131 2037 1178.33 2047 1228 2047 1280 2047 1333.33 2037 1383 2017 1429 1997 1475 1969.67 1515.67 1935 1551 1900.33 1586.33 1859.67 1614 1813 1634 1766.33 1654 1716.67 1664 1664 1664 1624 1664 1585 1658 1547 1646 1509 1634 1474 1616.33 1442 1593L1005 2029C992.333 2041.67 977.333 2048 960 2048 942.667 2048 927.667 2041.67 915 2029 902.333 2016.33 896 2001.33 896 1984 896 1966.67 902.333 1951.67 915 1939L1351 1502C1327.67 1470 1310 1435 1298 1397 1286 1359 1280 1320 1280 1280 1280 1227.33 1290 1177.67 1310 1131 1330 1084.33 1357.33 1043.67 1392 1009 1426.67 974.333 1467.33 946.667 1514 926 1560.67 905.333 1610.67 895.333 1664 896ZM1664 1536C1699.33 1536 1732.33 1529.33 1763 1516 1793.67 1502.67 1821 1484.33 1845 1461 1869 1437.67 1887.33 1410.67 1900 1380 1912.67 1349.33 1919.33 1316 1920 1280 1920 1244.67 1913.33 1211.67 1900 1181 1886.67 1150.33 1868.33 1123 1845 1099 1821.67 1075 1794.67 1056.67 1764 1044 1733.33 1031.33 1700 1024.67 1664 1024 1628.67 1024 1595.67 1030.67 1565 1044 1534.33 1057.33 1507 1075.67 1483 1099 1459 1122.33 1440.67 1149.33 1428 1180 1415.33 1210.67 1408.67 1244 1408 1280 1408 1315.33 1414.67 1348.33 1428 1379 1441.33 1409.67 1459.67 1437 1483 1461 1506.33 1485 1533.33 1503.33 1564 1516 1594.67 1528.67 1628 1535.33 1664 1536ZM1008 1664 880 1792 256 1792 256 0 1115 0 1664 549 1664 768 1536 768 1536 640 1024 640 1024 128 384 128 384 1664 1008 1664ZM1152 512 1445 512 1152 219 1152 512Z" class="MsftOfcThm_Accent2_lumOff_6_Fill" fill="#B4908B"/></g></g></svg>