<svg viewBox="0 0 96 96" xmlns="http://www.w3.org/2000/svg" xmlns:xlink="http://www.w3.org/1999/xlink" id="Icons_Education" overflow="hidden"><style>
.MsftOfcThm_Accent2_lumOff_2_Fill {
 fill:#D87A51; 
}
</style>
<g><g transform="matrix(0.0390625 0 0 0.0390625 8 8)"><path d="M1582 1065C1609.33 1113 1629.67 1163 1643 1215 1656.33 1267 1663.33 1320.67 1664 1376L1664 1479 1024 1800 384 1479C384 1439 384.333 1401.67 385 1367 385.667 1332.33 388.667 1298.67 394 1266 399.333 1233.33 407.333 1200.67 418 1168 428.667 1135.33 444.667 1101 466 1065L256 960 256 1547C275.333 1553.67 292.667 1563 308 1575 323.333 1587 337 1601 349 1617 361 1633 369.667 1650.33 375 1669 380.333 1687.67 383.333 1707.33 384 1728L384 2048 0 2048 0 1728C0 1708 3 1688.67 9 1670 15 1651.33 23.6667 1633.67 35 1617 46.3333 1600.33 59.6667 1586.33 75 1575 90.3333 1563.67 108 1554.33 128 1547L128 896 0 832 1024 320 2048 832 1582 1065ZM256 1728C256 1710.67 249.667 1695.67 237 1683 224.333 1670.33 209.333 1664 192 1664 174.667 1664 159.667 1670.33 147 1683 134.333 1695.67 128 1710.67 128 1728L128 1920 256 1920 256 1728ZM286 832 1024 1201 1762 832 1024 463 286 832ZM1536 1400C1536 1348.67 1531 1301 1521 1257 1511 1213 1493.33 1168 1468 1122L1024 1344 580 1122C558 1160.67 541.333 1201.33 530 1244 518.667 1286.67 512.667 1330.67 512 1376L512 1400 1024 1656 1536 1400Z" class="MsftOfcThm_Accent2_lumOff_2_Fill" fill="#D87A51"/></g></g></svg>