<svg viewBox="0 0 96 96" xmlns="http://www.w3.org/2000/svg" xmlns:xlink="http://www.w3.org/1999/xlink" id="Icons_RobotOutline" overflow="hidden"><style>
.MsftOfcThm_Accent2_Fill {
 fill:#ED7D31; 
}
</style>
<g><g transform="matrix(0.0390625 0 0 0.0390625 10 8)"><path d="M640 768 768 768 768 896 640 896 640 768ZM1152 768 1280 768 1280 896 1152 896 1152 768ZM1621 1408C1644.33 1408 1666.33 1412.33 1687 1421 1707.67 1429.67 1725.67 1442 1741 1458 1756.33 1474 1768.67 1492.33 1778 1513 1787.33 1533.67 1792 1555.67 1792 1579L1792 2048 1664 2048 1664 1579C1664 1567 1660 1557 1652 1549 1644 1541 1633.67 1536.67 1621 1536L299 1536C287 1536 277 1540 269 1548 261 1556 256.667 1566.33 256 1579L256 2048 128 2048 128 1579C128 1555.67 132.333 1533.67 141 1513 149.667 1492.33 162 1474.33 178 1459 194 1443.67 212 1431.33 232 1422 252 1412.67 274.333 1408 299 1408L640 1408 640 1280 555 1280C531.667 1280 509.667 1275.67 489 1267 468.333 1258.33 450 1246 434 1230 418 1214 406 1196 398 1176 390 1156 385.333 1133.67 384 1109L384 1024 256 1024 256 768 384 768 384 683C384 659.667 388.333 637.667 397 617 405.667 596.333 418 578.333 434 563 450 547.667 468 535.333 488 526 508 516.667 530.333 512 555 512L896 512 896 303C876.667 291.667 861.333 276 850 256 838.667 236 832.667 214.667 832 192 832 174 835.333 157.333 842 142 848.667 126.667 857.667 113.333 869 102 880.333 90.6667 894 81.3333 910 74 926 66.6667 942.667 63.3333 960 64 978 64 994.667 67.3333 1010 74 1025.33 80.6667 1038.67 89.6667 1050 101 1061.33 112.333 1070.67 126 1078 142 1085.33 158 1088.67 174.667 1088 192 1088 214.667 1082.33 236 1071 256 1059.67 276 1044 291.667 1024 303L1024 512 1365 512C1388.33 512 1410.33 516.333 1431 525 1451.67 533.667 1469.67 546 1485 562 1500.33 578 1512.67 596.333 1522 617 1531.33 637.667 1536 659.667 1536 683L1536 768 1664 768 1664 1024 1536 1024 1536 1109C1536 1132.33 1531.67 1154.33 1523 1175 1514.33 1195.67 1502 1214 1486 1230 1470 1246 1451.67 1258 1431 1266 1410.33 1274 1388.33 1278.67 1365 1280L1280 1280 1280 1408 1621 1408ZM512 1109C512 1121 516 1131 524 1139 532 1147 542.333 1151.33 555 1152L1365 1152C1377 1152 1387 1148 1395 1140 1403 1132 1407.33 1121.67 1408 1109L1408 683C1408 671 1404 661 1396 653 1388 645 1377.67 640.667 1365 640L555 640C543 640 533 644 525 652 517 660 512.667 670.333 512 683L512 1109ZM768 1408 1152 1408 1152 1280 768 1280 768 1408Z" class="MsftOfcThm_Accent2_Fill" fill="#ED7D31"/></g></g></svg>